# xmcd
#
# Track frame offsets: 
#        182
#        26597
#        60172
#        90830
#        122367
#        146017
#        180267
#
# Disc length: 2793 seconds
#
# Revision: 0
# Processed by: cddbd v1.5.2PL0 Copyright (c) Steve Scherf et al.
# Submitted via: ExactAudioCopy v1.0b5
#
DISCID=450ae707
DTITLE=Dadawa - Remixes From The Sky
DYEAR=1998
DGENRE=Folk/Rock
TTITLE0=DARKHORSE DELUXE MIX
TTITLE1=SCHIZOPHONE VERSION
TTITLE2=HIMALAYAN ASCENT
TTITLE3=BREAKBET SCIENCE MIX
TTITLE4=LOW-END THEORY MIX
TTITLE5=DADAWA GOES TO LHASA MIX
TTITLE6=MIKE FIX MIX
EXTD=
EXTT0=
EXTT1=
EXTT2=
EXTT3=
EXTT4=
EXTT5=
EXTT6=
PLAYORDER=
